<svg width="64" height="48" viewBox="0 0 64 48" fill="none" xmlns="http://www.w3.org/2000/svg">
<rect width="64" height="48" rx="24" fill="white"/>
<path d="M24.25 29.6345C24.0375 29.6345 23.8594 29.5626 23.7158 29.4187C23.5719 29.2751 23.5 29.0969 23.5 28.8842C23.5 28.6717 23.5719 28.4936 23.7158 28.35C23.8594 28.2065 24.0375 28.1347 24.25 28.1347H39.75C39.9625 28.1347 40.1406 28.2066 40.2843 28.3502C40.4281 28.4941 40.5 28.6723 40.5 28.885C40.5 29.0975 40.4281 29.2756 40.2843 29.4192C40.1406 29.5627 39.9625 29.6345 39.75 29.6345H24.25ZM24.25 24.75C24.0375 24.75 23.8594 24.6781 23.7158 24.5342C23.5719 24.3904 23.5 24.2122 23.5 23.9997C23.5 23.7871 23.5719 23.609 23.7158 23.4655C23.8594 23.3218 24.0375 23.25 24.25 23.25H39.75C39.9625 23.25 40.1406 23.3219 40.2843 23.4657C40.4281 23.6096 40.5 23.7877 40.5 24.0002C40.5 24.2129 40.4281 24.391 40.2843 24.5345C40.1406 24.6781 39.9625 24.75 39.75 24.75H24.25ZM24.25 19.8652C24.0375 19.8652 23.8594 19.7934 23.7158 19.6497C23.5719 19.5059 23.5 19.3276 23.5 19.115C23.5 18.9025 23.5719 18.7244 23.7158 18.5807C23.8594 18.4372 24.0375 18.3655 24.25 18.3655H39.75C39.9625 18.3655 40.1406 18.4374 40.2843 18.5812C40.4281 18.7249 40.5 18.9031 40.5 19.1157C40.5 19.3282 40.4281 19.5063 40.2843 19.65C40.1406 19.7935 39.9625 19.8652 39.75 19.8652H24.25Z" fill="#9856EF"/>
</svg>
